<svg id="Layer_1" data-name="Layer 1" xmlns="http://www.w3.org/2000/svg" viewBox="0 0 1535.4 333"><defs><style>.cls-1{fill:#fff;}</style></defs><path id="Path_113" data-name="Path 113" class="cls-1" d="M0,333H168.75c67.5,0,105.3-37.35,105.3-88.65,0-41.85-24.75-74.25-69.75-85,33.75-13.5,51.75-41,51.75-74.7,0-49-37.8-84.6-105.3-84.6H0L40.5,54V279ZM108,155.25V13.5H140c40.05,0,56.25,35.1,56.25,71.1S180,155.25,140,155.25Zm0,164.25V168.75H158c40.05,0,56.25,37.35,56.25,75.6S198,319.5,158,319.5ZM322.2,333H470.7l-40.5-54V207.9H455l13.5-.45L504,279,491,333H634.5l-59.4-53.55L541.35,216.9,494.1,204.75C560.25,194,591.3,154.8,591.3,104,591.3,44.1,548.1,0,455,0H322.2l40.5,54V279Zm108-138.6V13.5H455c41.85,0,62.1,39.15,62.1,90.45S496.8,194.4,455,194.4ZM675,333H823.5L783,279V54L823.5,0H675l40.5,54V279Zm189,0h95.85L934.2,279l14.4-39.15h116.1l13.5,41L1054.8,333h139.5l-44.55-53.1L1054.35,0H982.8l18.9,55.8L919.8,279Zm89.55-106.65,55.35-150.3,50.85,150.3ZM1229.85,333h94.5l-40.5-54V70.65L1452.15,333h82.35l-39.6-61.65V54l40.5-54h-94.5l40.5,54V250.2L1322.55,2.7l1.8-2.7h-94.5l40.5,54V279Z"/></svg>