<?xml version="1.0" encoding="utf-8"?>
<!-- Generator: Adobe Illustrator 24.3.0, SVG Export Plug-In . SVG Version: 6.00 Build 0)  -->
<svg version="1.1" id="Layer_1" xmlns="http://www.w3.org/2000/svg" xmlns:xlink="http://www.w3.org/1999/xlink" x="0px" y="0px"
	 viewBox="0 0 1920 1080" style="enable-background:new 0 0 1920 1080;" xml:space="preserve">
<style type="text/css">
	.st0{fill:#1B1B1B;}
	.st1{fill:#EE4D57;}
</style>
<path class="st0" d="M98.6,528.4c40.7-39.6,101.7-60.2,165-45.5c73.7,17.2,128.5,82,134.5,157.5c8.4,105-73.5,191.9-175.8,191.9
	c-47.9,0-92-19.3-123.7-50.3v41H12.2c-7,0-12.6-5.6-12.6-12.6V282.7c0-5.8,3.9-10.8,9.5-12.2l89.5-22.8V528.4z M296.5,655.2
	c0-24-9.3-46.4-25.5-64.2c-16.2-17-37.9-26.3-61.1-26.3c-23.2,0-45.7,9.3-61.9,26.3c-16.2,17.8-25.5,40.2-25.5,64.2
	c0,24,9.3,47.2,25.5,64.2c16.2,17,38.7,26.3,61.9,26.3c23.2,0,44.8-9.3,61.1-26.3C287.3,702.4,296.5,679.2,296.5,655.2z"/>
<path class="st0" d="M1307.9,502.3v308.1c0,7-5.6,12.6-12.6,12.6h-69.4v-32.5c-35.2,29.9-82.3,45.8-132.4,40.9
	c-76.6-7.5-140.7-65.9-155.8-141.4c-20.5-102.5,53.5-197.5,152-209.2c51.5-6.1,100,9.9,136.1,40.5v-31.7h69.4
	C1302.3,489.7,1307.9,495.4,1307.9,502.3z M1210.4,656c0-23.9-8.5-47.2-25.6-64.2c-16.2-17-37.8-26.3-61.1-26.3
	c-23.2,0-44.8,9.3-61.8,26.3c-16.2,17-25.6,40.2-25.6,64.2c0,24,9.3,46.4,25.6,64.2c17,17,38.7,26.3,61.8,26.3
	c23.2,0,44.8-9.3,61.1-26.3C1201.9,702.4,1210.4,680,1210.4,656z"/>
<path class="st0" d="M1464.3,519.1c26.3-23.2,61.1-38.7,95.1-38.7c89.7,0,163.2,78.8,163.2,177.1v152.9c0,7-5.6,12.6-12.6,12.6
	h-81.8V657.5c0-47.9-34-90.5-80.4-90.5c-46.4,0-80.5,42.6-80.5,90.5V823h-84.8c-7,0-12.6-5.6-12.6-12.6V502.3
	c0-7,5.6-12.6,12.6-12.6h81.8V519.1z"/>
<g>
	<path class="st0" d="M458.7,810.4V525c0-5.9,4.1-11,9.9-12.3l103.1-23V823H471.3C464.4,823,458.7,817.4,458.7,810.4z"/>
	<path class="st0" d="M639.3,609.9c-36,0-67.7-28.3-67.7-65.1s31.7-64.2,67.7-64.2c36,0,67.7,27.4,67.7,64.2
		S675.3,609.9,639.3,609.9z"/>
</g>
<g>
	<path class="st0" d="M773.2,810.4V525c0-5.9,4.1-11,9.9-12.3l87.7-19.6c7.9-1.8,15.3,4.2,15.3,12.3v305c0,7-5.6,12.6-12.6,12.6
		h-87.7C778.8,823,773.2,817.4,773.2,810.4z"/>
	<path class="st0" d="M829.6,453.2c-36,0-67.7-28.3-67.7-65.1s31.7-64.2,67.7-64.2c36,0,67.7,27.4,67.7,64.2
		S865.6,453.2,829.6,453.2z"/>
</g>
<path class="st1" d="M1852.3,823c-36,0-67.7-28.3-67.7-65.1c0-36.8,31.7-64.2,67.7-64.2c36,0,67.7,27.4,67.7,64.2
	C1920,794.7,1888.3,823,1852.3,823z"/>
</svg>
