<?xml version="1.0" encoding="utf-8"?>
<!-- Generator: Adobe Illustrator 25.2.0, SVG Export Plug-In . SVG Version: 6.00 Build 0)  -->
<svg version="1.1" id="Layer_1" xmlns="http://www.w3.org/2000/svg" xmlns:xlink="http://www.w3.org/1999/xlink" x="0px" y="0px"
	 viewBox="0 0 594.1 584.6" style="enable-background:new 0 0 594.1 584.6;" xml:space="preserve">
<style type="text/css">
	.st0{fill:#F5F6F7;}
</style>
<path class="st0" d="M98.6,280.7c40.7-39.6,101.7-60.2,165-45.5c73.7,17.2,128.5,82,134.5,157.5c8.4,105-73.5,191.9-175.8,191.9
	c-47.9,0-92-19.3-123.7-50.3v41H12.2c-7,0-12.6-5.6-12.6-12.6V35c0-5.8,3.9-10.8,9.5-12.2L98.6,0V280.7z M296.5,407.5
	c0-24-9.3-46.4-25.5-64.2c-16.2-17-37.9-26.3-61.1-26.3s-45.7,9.3-61.9,26.3c-16.2,17.8-25.5,40.2-25.5,64.2s9.3,47.2,25.5,64.2
	s38.7,26.3,61.9,26.3s44.8-9.3,61.1-26.3S296.5,431.5,296.5,407.5z"/>
<path class="st0" d="M526.4,575.3c-36,0-67.7-28.3-67.7-65.1s31.7-64.2,67.7-64.2s67.7,27.4,67.7,64.2S562.4,575.3,526.4,575.3z"/>
</svg>
